<svg width="20" height="20" viewBox="0 0 20 20" fill="none" xmlns="http://www.w3.org/2000/svg">
<path d="M9.99996 1.66667C5.39996 1.66667 1.66663 5.40001 1.66663 10C1.66663 14.6 5.39996 18.3333 9.99996 18.3333C14.6 18.3333 18.3333 14.6 18.3333 10C18.3333 5.40001 14.6 1.66667 9.99996 1.66667ZM7.74163 13.575L4.74996 10.5833C4.42496 10.2583 4.42496 9.73334 4.74996 9.40834C5.07496 9.08334 5.59996 9.08334 5.92496 9.40834L8.33329 11.8083L14.0666 6.07501C14.3916 5.75001 14.9166 5.75001 15.2416 6.07501C15.5666 6.40001 15.5666 6.925 15.2416 7.25001L8.91663 13.575C8.59996 13.9 8.06663 13.9 7.74163 13.575Z" fill="#2E3554"/>
</svg>
