<svg width="35" height="35" viewBox="0 0 35 35" fill="none" xmlns="http://www.w3.org/2000/svg">
<path d="M32.9583 16.4646L29.1667 12.6729V7.29167C29.1667 6.48958 28.5104 5.83333 27.7083 5.83333H22.3271L18.5354 2.04167C17.9667 1.47292 17.0479 1.47292 16.4792 2.04167L12.6729 5.83333H7.29167C6.48959 5.83333 5.83334 6.48958 5.83334 7.29167V12.6729L2.04167 16.4646C1.47292 17.0333 1.47292 17.9521 2.04167 18.5208L5.83334 22.3125V27.7083C5.83334 28.5104 6.48959 29.1667 7.29167 29.1667H12.6729L16.4646 32.9583C17.0333 33.5271 17.9521 33.5271 18.5208 32.9583L22.3125 29.1667H27.7083C28.5104 29.1667 29.1667 28.5104 29.1667 27.7083V22.3271L32.9583 18.5354C33.5271 17.9667 33.5271 17.0333 32.9583 16.4646V16.4646ZM26.1333 18.9292C25.6375 22.0208 23.4354 24.675 20.475 25.725C18.7104 26.3521 16.9604 26.3812 15.3708 25.9875C14.7729 25.8417 14.6708 25.0396 15.1813 24.675C17.4708 23.1 18.9583 20.475 18.9583 17.5C18.9583 14.525 17.4708 11.9 15.1958 10.325C14.6854 9.975 14.7729 9.17292 15.3854 9.0125C16.975 8.61875 18.725 8.64792 20.4896 9.275C23.4354 10.325 25.6521 12.9792 26.1479 16.0708C26.2208 16.5521 26.25 17.0333 26.25 17.5C26.2354 17.9667 26.2063 18.4479 26.1333 18.9292V18.9292Z" fill="#2E3554"/>
</svg>
