<svg width="35" height="35" viewBox="0 0 35 35" fill="none" xmlns="http://www.w3.org/2000/svg">
<path d="M29.1667 22.3271L32.9583 18.5354C33.5271 17.9667 33.5271 17.0479 32.9583 16.4792L29.1667 12.6729V7.29167C29.1667 6.48958 28.5104 5.83333 27.7083 5.83333H22.3271L18.5354 2.04167C17.9667 1.47292 17.0479 1.47292 16.4792 2.04167L12.6729 5.83333H7.29167C6.48959 5.83333 5.83334 6.48958 5.83334 7.29167V12.6729L2.04167 16.4646C1.47292 17.0333 1.47292 17.9521 2.04167 18.5208L5.83334 22.3125V27.7083C5.83334 28.5104 6.48959 29.1667 7.29167 29.1667H12.6729L16.4646 32.9583C17.0333 33.5271 17.9521 33.5271 18.5208 32.9583L22.3125 29.1667H27.7083C28.5104 29.1667 29.1667 28.5104 29.1667 27.7083V22.3271ZM17.5 26.25C12.6729 26.25 8.75001 22.3271 8.75001 17.5C8.75001 12.6729 12.6729 8.75 17.5 8.75C22.3271 8.75 26.25 12.6729 26.25 17.5C26.25 22.3271 22.3271 26.25 17.5 26.25Z" fill="#2E3554"/>
</svg>
