<svg xmlns='http://www.w3.org/2000/svg' dispaly='none'>
  <symbol id="warning-icon" viewBox="0 0 12 12" fill="none"
    xmlns="http://www.w3.org/2000/svg">
    <path d="M0.5 10.5H11.5L6 1L0.5 10.5ZM6.5 9H5.5V8H6.5V9ZM6.5 7H5.5V5H6.5V7Z" fill="#F03738"/>
  </symbol>
  <symbol id='cancel-icon' viewBox="0 0 20 20"
    xmlns='http://www.w3.org/2000/svg'>
    <path d="M9.99996 1.66667C5.39163 1.66667 1.66663 5.39167 1.66663 10C1.66663 14.6083 5.39163 18.3333 9.99996 18.3333C14.6083 18.3333 18.3333 14.6083 18.3333 10C18.3333 5.39167 14.6083 1.66667 9.99996 1.66667ZM14.1666 12.9917L12.9916 14.1667L9.99996 11.175L7.00829 14.1667L5.83329 12.9917L8.82496 10L5.83329 7.00834L7.00829 5.83334L9.99996 8.82501L12.9916 5.83334L14.1666 7.00834L11.175 10L14.1666 12.9917Z"/>
  </symbol>
  <symbol id='check-icon' viewBox="0 0 20 20"
    xmlns='http://www.w3.org/2000/svg'>
    <path d="M9.99996 1.66667C5.39996 1.66667 1.66663 5.40001 1.66663 10C1.66663 14.6 5.39996 18.3333 9.99996 18.3333C14.6 18.3333 18.3333 14.6 18.3333 10C18.3333 5.40001 14.6 1.66667 9.99996 1.66667ZM7.74163 13.575L4.74996 10.5833C4.42496 10.2583 4.42496 9.73334 4.74996 9.40834C5.07496 9.08334 5.59996 9.08334 5.92496 9.40834L8.33329 11.8083L14.0666 6.07501C14.3916 5.75001 14.9166 5.75001 15.2416 6.07501C15.5666 6.40001 15.5666 6.925 15.2416 7.25001L8.91663 13.575C8.59996 13.9 8.06663 13.9 7.74163 13.575Z"/>
  </symbol>
  <symbol id='color_lens-icon' viewBox="0 0 24 24"
    xmlns='http://www.w3.org/2000/svg'>
    <path d="M12 3C7.03 3 3 7.03 3 12C3 16.97 7.03 21 12 21C12.83 21 13.5 20.33 13.5 19.5C13.5 19.11 13.35 18.76 13.11 18.49C12.88 18.23 12.73 17.88 12.73 17.5C12.73 16.67 13.4 16 14.23 16H16C18.76 16 21 13.76 21 11C21 6.58 16.97 3 12 3ZM6.5 12C5.67 12 5 11.33 5 10.5C5 9.67 5.67 9 6.5 9C7.33 9 8 9.67 8 10.5C8 11.33 7.33 12 6.5 12ZM9.5 8C8.67 8 8 7.33 8 6.5C8 5.67 8.67 5 9.5 5C10.33 5 11 5.67 11 6.5C11 7.33 10.33 8 9.5 8ZM14.5 8C13.67 8 13 7.33 13 6.5C13 5.67 13.67 5 14.5 5C15.33 5 16 5.67 16 6.5C16 7.33 15.33 8 14.5 8ZM17.5 12C16.67 12 16 11.33 16 10.5C16 9.67 16.67 9 17.5 9C18.33 9 19 9.67 19 10.5C19 11.33 18.33 12 17.5 12Z"/>
  </symbol>
  <symbol id='dark_theme-icon' viewBox="0 0 35 35"
    xmlns='http://www.w3.org/2000/svg'>
    <path d="M32.9583 16.4646L29.1667 12.6729V7.29167C29.1667 6.48958 28.5104 5.83333 27.7083 5.83333H22.3271L18.5354 2.04167C17.9667 1.47292 17.0479 1.47292 16.4792 2.04167L12.6729 5.83333H7.29167C6.48959 5.83333 5.83334 6.48958 5.83334 7.29167V12.6729L2.04167 16.4646C1.47292 17.0333 1.47292 17.9521 2.04167 18.5208L5.83334 22.3125V27.7083C5.83334 28.5104 6.48959 29.1667 7.29167 29.1667H12.6729L16.4646 32.9583C17.0333 33.5271 17.9521 33.5271 18.5208 32.9583L22.3125 29.1667H27.7083C28.5104 29.1667 29.1667 28.5104 29.1667 27.7083V22.3271L32.9583 18.5354C33.5271 17.9667 33.5271 17.0333 32.9583 16.4646V16.4646ZM26.1333 18.9292C25.6375 22.0208 23.4354 24.675 20.475 25.725C18.7104 26.3521 16.9604 26.3812 15.3708 25.9875C14.7729 25.8417 14.6708 25.0396 15.1813 24.675C17.4708 23.1 18.9583 20.475 18.9583 17.5C18.9583 14.525 17.4708 11.9 15.1958 10.325C14.6854 9.975 14.7729 9.17292 15.3854 9.0125C16.975 8.61875 18.725 8.64792 20.4896 9.275C23.4354 10.325 25.6521 12.9792 26.1479 16.0708C26.2208 16.5521 26.25 17.0333 26.25 17.5C26.2354 17.9667 26.2063 18.4479 26.1333 18.9292V18.9292Z" />
  </symbol>
  <symbol id='delete-icon' viewBox="0 0 20 20">
    <path d="M4.99996 15.8333C4.99996 16.75 5.74996 17.5 6.66663 17.5H13.3333C14.25 17.5 15 16.75 15 15.8333V7.5C15 6.58333 14.25 5.83333 13.3333 5.83333H6.66663C5.74996 5.83333 4.99996 6.58333 4.99996 7.5V15.8333ZM15 3.33333H12.9166L12.325 2.74167C12.175 2.59167 11.9583 2.5 11.7416 2.5H8.25829C8.04163 2.5 7.82496 2.59167 7.67496 2.74167L7.08329 3.33333H4.99996C4.54163 3.33333 4.16663 3.70833 4.16663 4.16667C4.16663 4.625 4.54163 5 4.99996 5H15C15.4583 5 15.8333 4.625 15.8333 4.16667C15.8333 3.70833 15.4583 3.33333 15 3.33333Z" />
  </symbol>
  <symbol id='edit-icon' viewBox="0 0 20 20">
    <path d="M2.5 14.55V17.0833C2.5 17.3167 2.68333 17.5 2.91667 17.5H5.45C5.55833 17.5 5.66667 17.4583 5.74167 17.375L14.8417 8.28334L11.7167 5.15834L2.625 14.25C2.54167 14.3333 2.5 14.4333 2.5 14.55ZM17.2583 5.86667C17.5833 5.54168 17.5833 5.01667 17.2583 4.69167L15.3083 2.74167C14.9833 2.41667 14.4583 2.41667 14.1333 2.74167L12.6083 4.26667L15.7333 7.39167L17.2583 5.86667Z" />
  </symbol>
  <symbol id='ellipse_plus-icon' viewBox="0 0 20 20">
    <path d="M10 5C9.45 5 9 5.45 9 6V9H6C5.45 9 5 9.45 5 10C5 10.55 5.45 11 6 11H9V14C9 14.55 9.45 15 10 15C10.55 15 11 14.55 11 14V11H14C14.55 11 15 10.55 15 10C15 9.45 14.55 9 14 9H11V6C11 5.45 10.55 5 10 5ZM10 0C4.48 0 0 4.48 0 10C0 15.52 4.48 20 10 20C15.52 20 20 15.52 20 10C20 4.48 15.52 0 10 0ZM10 18C5.59 18 2 14.41 2 10C2 5.59 5.59 2 10 2C14.41 2 18 5.59 18 10C18 14.41 14.41 18 10 18Z" />
  </symbol>
  <symbol id='light_theme-icon' viewBox="0 0 35 35">
    <path d="M29.1667 22.3271L32.9583 18.5354C33.5271 17.9667 33.5271 17.0479 32.9583 16.4792L29.1667 12.6729V7.29167C29.1667 6.48958 28.5104 5.83333 27.7083 5.83333H22.3271L18.5354 2.04167C17.9667 1.47292 17.0479 1.47292 16.4792 2.04167L12.6729 5.83333H7.29167C6.48959 5.83333 5.83334 6.48958 5.83334 7.29167V12.6729L2.04167 16.4646C1.47292 17.0333 1.47292 17.9521 2.04167 18.5208L5.83334 22.3125V27.7083C5.83334 28.5104 6.48959 29.1667 7.29167 29.1667H12.6729L16.4646 32.9583C17.0333 33.5271 17.9521 33.5271 18.5208 32.9583L22.3125 29.1667H27.7083C28.5104 29.1667 29.1667 28.5104 29.1667 27.7083V22.3271ZM17.5 26.25C12.6729 26.25 8.75001 22.3271 8.75001 17.5C8.75001 12.6729 12.6729 8.75 17.5 8.75C22.3271 8.75 26.25 12.6729 26.25 17.5C26.25 22.3271 22.3271 26.25 17.5 26.25Z" fill="#2E3554"/>
  </symbol>
  <!-- <symbol id='diagram_switch-icon' viewBox="0 0 30 30"
    xmlns="http://www.w3.org/2000/svg">
    <g>
      <path d="M17.5875 6.65004C20.325 7.50004 22.5 9.67504 23.35 12.4125C23.5875 13.2 24.3 13.75 25.1125 13.75H25.1625C26.4125 13.75 27.3125 12.55 26.95 11.3625C25.7375 7.38754 22.6 4.25004 18.625 3.03754C17.45 2.67504 16.25 3.57504 16.25 4.82504V4.87504C16.25 5.70004 16.8 6.41254 17.5875 6.65004ZM23.35 17.5875C22.5 20.3375 20.325 22.5 17.5875 23.35C16.8 23.5875 16.25 24.3 16.25 25.1125V25.1625C16.25 26.4125 17.45 27.3125 18.6375 26.95C22.6125 25.7375 25.75 22.6 26.9625 18.625C27.325 17.4375 26.425 16.2375 25.1875 16.2375H25.125C24.3 16.25 23.5875 16.8 23.35 17.5875ZM13.75 25.1375C13.75 24.3 13.1875 23.5875 12.3875 23.3375C8.8375 22.225 6.25 18.9125 6.25 15C6.25 11.0875 8.8375 7.77504 12.3875 6.66254C13.1875 6.41254 13.75 5.70004 13.75 4.86254V4.85004C13.75 3.60004 12.5375 2.67504 11.3375 3.05004C6.225 4.61254 2.5 9.37504 2.5 15C2.5 20.625 6.225 25.3875 11.3375 26.95C12.5375 27.325 13.75 26.4 13.75 25.1375Z"/>
      <path d="M19.4083 12.7583C19.0833 12.4333 18.5583 12.4333 18.2333 12.7583L15 15.9916L11.7667 12.7583C11.4417 12.4333 10.9167 12.4333 10.5917 12.7583C10.2667 13.0833 10.2667 13.6083 10.5917 13.9333L14.4167 17.7583C14.7417 18.0833 15.2667 18.0833 15.5917 17.7583L19.4167 13.9333C19.7333 13.6166 19.7333 13.0833 19.4083 12.7583Z"/>
    </g>
  </symbol> -->
</svg>